<!DOCTYPE svg PUBLIC "-//W3C//DTD SVG 20010904//EN"
 "http://www.w3.org/TR/2001/REC-SVG-20010904/DTD/svg10.dtd">
<svg version="1.0" xmlns="http://www.w3.org/2000/svg"
 width="2031.000000pt" height="2022.000000pt" viewBox="0 0 2031.000000 2022.000000"
 preserveAspectRatio="xMidYMid meet">

<g transform="translate(0.000000,2022.000000) scale(0.100000,-0.100000)"
fill="#fff" stroke="none">
<path d="M9995 20211 c-31 -13 -52 -42 -59 -84 -4 -21 -198 -842 -432 -1824
l-424 -1787 -67 -114 c-57 -98 -65 -118 -57 -141 18 -49 31 -51 431 -51 l372
0 27 23 c31 27 37 74 13 103 -8 10 -44 37 -81 61 -44 28 -68 51 -68 63 0 21
487 2423 499 2460 10 31 56 41 65 13 25 -83 545 -2515 540 -2528 -9 -21 -52
-43 -104 -51 -24 -4 -51 -15 -62 -26 -24 -24 -23 -70 3 -94 20 -18 45 -19 511
-22 542 -3 538 -3 538 57 0 36 -8 42 -105 76 -120 42 -142 54 -154 83 -6 15
-211 860 -456 1877 -245 1018 -453 1860 -461 1873 -8 13 -26 27 -40 32 -31 12
-401 12 -429 1z"/>
<path d="M18110 20154 c-14 -2 -63 -9 -110 -15 -97 -14 -115 -21 -131 -51 -31
-58 2 -118 75 -137 63 -16 136 -69 170 -124 l29 -47 -9 -1578 -10 -1577 -29
-60 c-35 -73 -113 -154 -183 -189 -77 -39 -93 -86 -46 -133 23 -23 31 -25 77
-19 96 11 728 8 827 -4 201 -24 258 -27 355 -19 258 24 477 123 658 298 143
138 211 265 258 477 158 718 176 1468 54 2198 -58 344 -105 469 -238 633 -110
137 -302 259 -502 320 l-90 28 -565 1 c-311 1 -576 0 -590 -2z m1008 -579
c142 -34 255 -118 317 -237 38 -72 38 -73 53 -267 24 -301 23 -1276 -1 -1596
-10 -132 -22 -265 -28 -295 -14 -85 -72 -193 -143 -264 -76 -79 -150 -121
-246 -143 -81 -18 -254 -23 -332 -10 l-48 8 0 252 c0 139 5 761 11 1382 12
1257 5 1156 83 1174 66 15 264 12 334 -4z"/>
<path d="M112 20143 c-17 -6 -42 -57 -42 -83 0 -12 7 -34 15 -50 12 -24 29
-34 98 -55 82 -26 122 -53 137 -90 4 -11 2 -677 -6 -1480 -18 -1982 -15 -1851
-41 -1901 -28 -53 -123 -140 -201 -184 -34 -19 -62 -38 -62 -42 0 -3 29 -29
63 -57 l64 -50 53 20 c128 49 159 51 635 53 486 2 542 7 730 61 114 33 310
129 397 195 97 74 236 225 293 320 95 159 149 373 149 595 0 155 -12 243 -55
385 -61 198 -233 387 -493 542 -68 40 -62 56 42 124 217 141 385 365 442 588
24 97 27 252 4 346 -53 228 -275 479 -539 610 -208 103 -329 127 -668 135
-133 3 -384 10 -557 15 -340 11 -438 11 -458 3z m1038 -494 c258 -41 469 -212
525 -424 41 -159 -6 -358 -112 -475 -55 -61 -169 -133 -263 -165 -75 -25 -99
-29 -211 -29 -178 -1 -166 -22 -158 261 4 125 7 364 8 530 1 231 4 303 14 306
22 9 130 7 197 -4z m115 -1639 c96 -30 208 -90 282 -151 212 -174 276 -516
144 -776 -71 -142 -253 -267 -449 -308 -122 -26 -290 -18 -312 15 -3 5 -2 129
1 276 4 148 7 422 8 610 1 257 4 343 14 353 20 21 225 8 312 -19z"/>
<path d="M1080 12200 c-179 -4 -480 -9 -670 -11 l-345 -4 -30 -26 c-24 -22
-30 -35 -30 -67 0 -53 31 -86 93 -102 70 -17 160 -69 213 -122 54 -54 115
-169 128 -242 9 -49 -24 -3037 -35 -3102 -7 -47 -41 -77 -129 -113 -44 -18
-88 -42 -97 -53 -27 -30 -23 -80 8 -109 l26 -24 506 -3 c368 -2 514 1 535 9
53 22 71 77 45 135 -10 20 -45 43 -153 95 -77 38 -146 73 -152 79 -10 8 -13
159 -13 693 l0 682 227 -1 227 -1 242 -654 c134 -360 243 -665 244 -678 0 -24
-30 -58 -157 -174 -46 -42 -53 -53 -53 -86 0 -27 7 -44 26 -62 l26 -24 481 -3
c505 -3 522 -1 552 42 17 24 20 88 5 116 -6 10 -37 33 -70 51 -68 36 -172 127
-213 186 -37 54 -539 1392 -533 1419 4 14 34 38 84 67 286 165 404 394 444
859 21 248 -6 456 -82 633 -58 134 -210 311 -349 404 -93 63 -233 127 -342
155 -99 27 -240 47 -299 44 -19 -1 -181 -5 -360 -8z m415 -492 c94 -20 173
-66 255 -147 148 -146 187 -264 177 -526 -7 -151 -25 -253 -59 -325 -33 -68
-179 -209 -263 -252 -129 -67 -201 -83 -365 -83 -136 0 -147 2 -184 24 -76 47
-74 33 -62 651 8 397 14 551 23 567 25 42 132 89 243 104 63 8 162 3 235 -13z"/>
<path d="M18094 12149 c-18 -20 -19 -44 -24 -353 -5 -357 -6 -356 46 -356 43
0 73 23 145 112 l72 88 221 -2 221 -3 13 -27 c19 -40 -3 -3014 -23 -3043 -7
-11 -50 -62 -94 -114 -89 -102 -97 -126 -56 -166 l24 -25 319 0 c438 0 590 8
614 32 38 38 25 63 -98 189 l-116 119 6 272 c4 150 13 827 22 1503 15 1217 16
1230 36 1248 18 15 44 17 218 17 109 0 206 -3 214 -6 9 -3 43 -43 75 -88 33
-45 71 -88 86 -94 41 -19 81 -14 112 12 l28 24 3 301 c3 325 -1 355 -51 365
-12 3 -466 7 -1008 10 l-986 6 -19 -21z"/>
<path d="M9921 12117 l-22 -24 -9 -1918 c-5 -1072 -5 -1928 0 -1940 20 -52 36
-55 287 -55 231 0 232 0 260 24 l28 24 3 1904 c1 1046 0 1918 -3 1936 -3 18
-15 42 -26 53 -18 18 -35 19 -257 19 -237 0 -239 0 -261 -23z"/>
<path d="M63 4033 c-18 -17 -23 -34 -23 -70 0 -60 14 -80 95 -139 43 -30 65
-53 66 -67 1 -12 2 -641 3 -1397 1 -1248 3 -1385 18 -1484 34 -213 102 -358
236 -498 390 -408 1072 -419 1480 -24 127 123 212 273 245 436 31 146 66 1459
67 2456 l0 522 74 63 c80 70 105 115 87 163 -21 55 -20 55 -486 56 -236 1
-436 1 -442 1 -18 -1 -43 -55 -43 -93 0 -46 25 -79 100 -135 l65 -48 3 -1355
c1 -809 -1 -1380 -7 -1416 -26 -174 -158 -307 -334 -337 -214 -36 -421 115
-457 334 -6 42 -10 535 -10 1415 l0 1352 74 63 c82 71 105 113 87 161 -21 57
-20 56 -466 60 l-410 3 -22 -22z"/>
<path d="M9965 3985 c-14 -13 -25 -31 -25 -40 0 -8 -193 -829 -430 -1823
l-429 -1808 -66 -115 c-35 -63 -65 -121 -65 -130 0 -8 12 -26 26 -40 l26 -24
366 -3 c334 -2 370 -1 401 15 40 20 55 59 37 94 -6 12 -40 43 -75 68 -35 25
-68 53 -74 62 -13 20 486 2489 506 2501 21 14 37 9 47 -14 18 -41 550 -2512
545 -2529 -6 -18 -62 -44 -114 -53 -59 -10 -84 -49 -65 -101 17 -43 37 -45
541 -45 526 0 523 0 523 59 0 26 -26 61 -45 61 -28 0 -205 74 -210 88 -4 10
-209 854 -456 1877 -247 1023 -453 1870 -459 1883 -5 12 -21 27 -36 32 -14 6
-120 10 -235 10 -210 0 -210 0 -234 -25z"/>
<path d="M18330 3948 c-33 -12 -53 -54 -47 -99 7 -50 26 -73 76 -88 21 -6 45
-18 52 -27 11 -13 11 -335 1 -1830 -9 -1331 -10 -1820 -1 -1835 26 -49 17 -49
944 -49 951 0 908 -3 940 60 12 24 15 77 15 295 0 346 -3 355 -134 355 l-66 0
-71 -75 -72 -75 -457 0 c-404 0 -459 2 -471 16 -10 13 -14 310 -18 1562 -5
1367 -4 1549 9 1563 8 9 48 26 87 38 61 18 75 26 89 53 13 26 14 38 5 70 -21
68 -11 67 -459 70 -222 2 -412 0 -422 -4z"/>
</g>
</svg>
